<svg xmlns="http://www.w3.org/2000/svg" width="50.689" height="55.815" viewBox="0 0 50.689 55.815">
  <g id="Group_7229" data-name="Group 7229" transform="translate(-25.182 -17)">
    <g id="Group_14" data-name="Group 14">
      <path id="Path_4473" data-name="Path 4473" d="M61.7,28.6h7.92L50.859,66.128,31.157,28.6h8.812L51.156,50.237Z" fill="#f602a4" stroke="#f602a4" stroke-miterlimit="10" stroke-width="2"/>
    </g>
    <path id="Path_4474" data-name="Path 4474" d="M69.587,28.6V71.729H31.159V28.6H69.587m1.086-1.085h-40.6v45.3h40.6V27.52Z" fill="#f602a4"/>
    <g id="Group_16" data-name="Group 16">
      <g id="Group_15" data-name="Group 15">
        <path id="Path_4475" data-name="Path 4475" d="M70.308,72.613h-8.9l-10.284-21.1-10.912,21.1H30.422L50.853,33.7Zm-8.352-.869H68.9L50.834,35.606,31.859,71.744h7.829L51.152,49.578Z" fill="#f602a4"/>
      </g>
    </g>
    <path id="Path_4476" data-name="Path 4476" d="M50.529,67.689h-.154A25.345,25.345,0,0,1,50.523,17h.156A25.374,25.374,0,0,1,75.871,42.5h0A25.375,25.375,0,0,1,50.529,67.689Zm-.006-49.6A24.259,24.259,0,0,0,50.381,66.6h.148a24.259,24.259,0,0,0,.143-48.518Z" fill="#f602a4"/>
  </g>
</svg>
