<svg xmlns="http://www.w3.org/2000/svg" width="298.174" height="73.785" viewBox="0 0 298.174 73.785">
  <g id="Group_7230" data-name="Group 7230" transform="translate(-771.36 -924.531)">
    <g id="Group_4627" data-name="Group 4627">
      <path id="Path_9184" data-name="Path 9184" d="M808.253,997.566h0a36.142,36.142,0,0,1-36.143-36.142h0a36.143,36.143,0,0,1,36.143-36.143h0A36.143,36.143,0,0,1,844.4,961.424h0A36.142,36.142,0,0,1,808.253,997.566Z" fill="none" stroke="#fff" stroke-miterlimit="10" stroke-width="1.5"/>
      <g id="Group_4626" data-name="Group 4626">
        <path id="Path_9185" data-name="Path 9185" d="M808.253,945.177c5.291,0,5.918.02,8.007.116a10.974,10.974,0,0,1,3.68.682,6.564,6.564,0,0,1,3.761,3.761,10.972,10.972,0,0,1,.683,3.68c.1,2.09.115,2.716.115,8.008s-.02,5.918-.115,8.007a10.96,10.96,0,0,1-.683,3.68,6.557,6.557,0,0,1-3.761,3.761,10.942,10.942,0,0,1-3.68.683c-2.089.1-2.716.115-8.007.115s-5.919-.02-8.008-.115a10.942,10.942,0,0,1-3.68-.683,6.557,6.557,0,0,1-3.761-3.761,10.969,10.969,0,0,1-.682-3.68c-.1-2.089-.116-2.716-.116-8.007s.02-5.918.116-8.008a10.98,10.98,0,0,1,.682-3.68,6.564,6.564,0,0,1,3.761-3.761,10.974,10.974,0,0,1,3.68-.682c2.089-.1,2.716-.116,8.008-.116m0-3.57c-5.383,0-6.057.023-8.171.119a14.534,14.534,0,0,0-4.81.921,10.129,10.129,0,0,0-5.8,5.8,14.538,14.538,0,0,0-.921,4.81c-.1,2.114-.119,2.789-.119,8.171s.022,6.057.119,8.17a14.54,14.54,0,0,0,.921,4.811,10.129,10.129,0,0,0,5.8,5.8,14.559,14.559,0,0,0,4.81.921c2.114.1,2.788.119,8.171.119s6.056-.023,8.17-.119a14.552,14.552,0,0,0,4.81-.921,10.136,10.136,0,0,0,5.8-5.8,14.54,14.54,0,0,0,.921-4.811c.1-2.113.119-2.788.119-8.17s-.022-6.057-.119-8.171a14.538,14.538,0,0,0-.921-4.81,10.136,10.136,0,0,0-5.8-5.8,14.527,14.527,0,0,0-4.81-.921c-2.114-.1-2.789-.119-8.17-.119" fill="#fff"/>
        <path id="Path_9186" data-name="Path 9186" d="M808.253,951.248a10.176,10.176,0,1,0,10.176,10.176,10.177,10.177,0,0,0-10.176-10.176m0,16.781a6.605,6.605,0,1,1,6.6-6.6,6.605,6.605,0,0,1-6.6,6.6" fill="#fff"/>
        <path id="Path_9187" data-name="Path 9187" d="M821.209,950.845a2.378,2.378,0,1,1-2.378-2.378,2.379,2.379,0,0,1,2.378,2.378" fill="#fff"/>
      </g>
    </g>
    <text id="VITRUVIO.MKT" transform="translate(964.534 971.071)" fill="#fff" font-size="28.179" font-family="Sifonn-Pro, Sifonn Pro"><tspan x="-104.542" y="0">VITRUVIO.MKT</tspan></text>
  </g>
</svg>
