<svg xmlns="http://www.w3.org/2000/svg" xmlns:xlink="http://www.w3.org/1999/xlink" width="680" height="1080" viewBox="0 0 680 1080">
  <defs>
    <clipPath id="clip-path">
      <rect id="Rectangle_101" data-name="Rectangle 101" width="680" height="1080" transform="translate(1736 5225.867)" fill="#f749bb"/>
    </clipPath>
  </defs>
  <g id="Mask_Group_1" data-name="Mask Group 1" transform="translate(-1736 -5225.867)" clip-path="url(#clip-path)">
    <g id="Group_7218" data-name="Group 7218" transform="translate(4881.466 5118.013)" opacity="0.12">
      <g id="Group_4661" data-name="Group 4661" transform="translate(-3439.002 280.044)">
        <path id="Path_9188" data-name="Path 9188" d="M-2908.646,47.713H-2740.1l-399.244,798.506L-3558.621,47.713h187.516l238.074,460.345Z" transform="translate(3558.621 -47.713)" fill="#fff" stroke="#fff" stroke-miterlimit="10" stroke-width="2"/>
      </g>
      <path id="Path_9189" data-name="Path 9189" d="M-2719.129,69.447V987.126h-817.762V69.447h817.762m23.1-23.1h-863.956v963.873h863.956V46.35Z" transform="translate(97.944 210.631)" fill="#fff"/>
      <g id="Group_4663" data-name="Group 4663" transform="translate(-3454.617 388.54)">
        <g id="Group_4662" data-name="Group 4662">
          <path id="Path_9190" data-name="Path 9190" d="M-2710.8,882.141h-189.261l-218.848-449.008-232.221,449.008h-208.412l434.74-828.016Zm-177.717-18.477h147.836L-3125.195,94.65l-403.78,769.013h166.6l243.928-471.7Z" transform="translate(3559.547 -54.125)" fill="#fff"/>
        </g>
      </g>
      <path id="Path_9191" data-name="Path 9191" d="M-3026.745,1111.766h-3.3c-144.049-.863-279.142-57.784-380.4-160.256S-3566.992,713.266-3566.129,569.2c.883-144.046,57.785-279.141,160.256-380.4C-3304.194,88.332-3169.71,33.12-3026.9,33.12h3.332C-2726.18,34.914-2485.7,278.3-2487.48,575.683h0C-2489.258,871.949-2730.886,1111.766-3026.745,1111.766Zm-.135-1055.549c-136.72,0-265.417,52.843-362.767,149.021-98.07,96.905-152.554,226.23-153.385,364.117-.807,137.887,52.1,267.838,149.024,365.928,96.9,98.089,226.229,152.557,364.112,153.386h3.131c283.239,0,514.478-229.53,516.188-513.121,1.71-284.641-228.481-517.622-513.121-519.331Z" transform="translate(0.004)" fill="#fff"/>
    </g>
  </g>
</svg>
