<svg xmlns="http://www.w3.org/2000/svg" width="259.472" height="56" viewBox="0 0 259.472 56">
  <g id="Group_4652" data-name="Group 4652" transform="translate(-25.183 -17)">
    <g id="Group_12" data-name="Group 12">
      <g id="Group_5" data-name="Group 5">
        <path id="Path_4440" data-name="Path 4440" d="M85.484,64.616H77.811V27.735h7.673Z" fill="#fff"/>
        <path id="Path_4441" data-name="Path 4441" d="M85.7,64.833H77.594V27.518H85.7ZM78.028,64.4h7.239V27.952H78.028Z" fill="#fff"/>
      </g>
      <g id="Group_6" data-name="Group 6">
        <path id="Path_4442" data-name="Path 4442" d="M99.939,64.616V34.666H90.83V27.735h26.485v6.931h-9.7v29.95Z" fill="#fff"/>
        <path id="Path_4443" data-name="Path 4443" d="M107.829,64.833H99.722V34.883H90.613V27.518h26.919v7.365h-9.7Zm-7.673-.434h7.239V34.449h9.7v-6.5H91.047v6.5h9.109Z" fill="#fff"/>
      </g>
      <g id="Group_7" data-name="Group 7">
        <path id="Path_4444" data-name="Path 4444" d="M130.334,58.23v6.386h-7.673V27.735h12.822c8.663,0,15.3,6.485,15.3,14.505,0,6.633-3.168,11.485-8.316,13.861l7.97,8.515h-10.2L134.2,58.23Zm4.208-6.931c5.445,0,8.515-3.317,8.515-8.465,0-4.505-2.723-8.168-8.069-8.168h-4.654V51.3Z" fill="#fff"/>
        <path id="Path_4445" data-name="Path 4445" d="M150.933,64.833H140.142l-6.04-6.386h-3.551v6.386h-8.107V27.518h13.039c8.7,0,15.513,6.467,15.513,14.722,0,6.443-2.9,11.378-8.171,13.93Zm-10.6-.434h9.6L142.1,56.03l.273-.126c5.282-2.438,8.19-7.29,8.19-13.664,0-8.012-6.623-14.288-15.079-14.288H122.878V64.4h7.239V58.013h4.172Zm-5.787-12.883h-4.425V34.449h4.871c5.033,0,8.286,3.291,8.286,8.385C143.274,48.27,140.01,51.516,134.542,51.516Zm-3.991-.434h3.991c5.2,0,8.3-3.083,8.3-8.248,0-4.83-3.082-7.951-7.852-7.951h-4.437Z" fill="#fff"/>
      </g>
      <g id="Group_8" data-name="Group 8">
        <path id="Path_4446" data-name="Path 4446" d="M156.62,47.537v-19.8h7.673V48.824c0,5.792,2.822,9.059,8.267,9.059,5.693,0,8.168-3.515,8.168-9.059V27.735H188.4V48.18c0,10.743-5.99,17.079-15.842,17.079C161.768,65.259,156.62,57.784,156.62,47.537Z" fill="#fff"/>
        <path id="Path_4447" data-name="Path 4447" d="M172.56,65.476c-10.117,0-16.157-6.706-16.157-17.939V27.518h8.107V48.824c0,5.785,2.784,8.842,8.05,8.842,5.2,0,7.951-3.057,7.951-8.842V27.518h8.108V48.18C188.619,59.011,182.615,65.476,172.56,65.476ZM156.837,27.952V47.537c0,10.961,5.878,17.505,15.723,17.505,9.784,0,15.624-6.3,15.624-16.862V27.952h-7.239V48.824c0,6.069-2.9,9.276-8.385,9.276-5.471,0-8.484-3.294-8.484-9.276V27.952Z" fill="#fff"/>
      </g>
      <g id="Group_9" data-name="Group 9">
        <path id="Path_4448" data-name="Path 4448" d="M221.173,27.735h7.92L210.331,65.259l-19.7-37.524h8.811l11.188,21.634Z" fill="#fff"/>
        <path id="Path_4449" data-name="Path 4449" d="M210.336,65.735,190.27,27.518h9.3l11.05,21.367,10.414-21.367h8.408ZM190.988,27.952l19.339,36.831,18.415-36.831h-7.434l-10.674,21.9-11.326-21.9Z" fill="#fff"/>
      </g>
      <g id="Group_10" data-name="Group 10">
        <path id="Path_4450" data-name="Path 4450" d="M239.885,64.616h-7.673V27.735h7.673Z" fill="#fff"/>
        <path id="Path_4451" data-name="Path 4451" d="M240.1,64.833h-8.107V27.518H240.1Zm-7.673-.434h7.239V27.952h-7.239Z" fill="#fff"/>
      </g>
      <g id="Group_11" data-name="Group 11">
        <path id="Path_4452" data-name="Path 4452" d="M246.271,46.151a19.084,19.084,0,1,1,19.108,19.108A19.035,19.035,0,0,1,246.271,46.151Zm7.871,0c0,6.584,4.9,11.732,11.237,11.732,6.238,0,11.188-5.148,11.188-11.732A11.47,11.47,0,0,0,265.33,34.418C259.043,34.418,254.142,39.666,254.142,46.151Z" fill="#fff"/>
        <path id="Path_4453" data-name="Path 4453" d="M265.379,65.476A19.3,19.3,0,1,1,279.01,32.513a19.317,19.317,0,0,1-13.631,32.963Zm-.049-38.167a18.867,18.867,0,1,0,18.891,18.842A18.863,18.863,0,0,0,265.33,27.309Zm.049,30.791c-6.423,0-11.454-5.249-11.454-11.949s5.01-11.95,11.4-11.95a11.723,11.723,0,0,1,11.454,11.95C276.784,52.851,271.774,58.1,265.379,58.1Zm-.049-23.465c-6.152,0-10.971,5.059-10.971,11.516s4.841,11.515,11.02,11.515c6.152,0,10.971-5.058,10.971-11.515A11.289,11.289,0,0,0,265.33,34.635Z" fill="#fff"/>
      </g>
    </g>
    <g id="Group_13" data-name="Group 13">
      <path id="Path_4454" data-name="Path 4454" d="M82.483,72.894l-.768-1.915H79.322l-.82,1.915h-.689l2.763-6.488,2.6,6.488Zm-1.925-4.819L79.6,70.334h1.863Z" fill="#fff"/>
      <path id="Path_4455" data-name="Path 4455" d="M89.828,68.207v4.687h-.653V66.459l4.166,4.758-.009-4.652h.653v6.391Z" fill="#fff"/>
      <path id="Path_4456" data-name="Path 4456" d="M104.658,72.894l-.768-1.915H101.5l-.821,1.915h-.688l2.763-6.488,2.6,6.488Zm-1.924-4.819-.962,2.259h1.862Z" fill="#fff"/>
      <path id="Path_4457" data-name="Path 4457" d="M111.889,72.938V67.245h-1.863V66.6h4.361v.645h-1.863v5.693Z" fill="#fff"/>
      <path id="Path_4458" data-name="Path 4458" d="M120.02,69.716a3.183,3.183,0,1,1,3.177,3.258A3.215,3.215,0,0,1,120.02,69.716Zm5.711,0a2.576,2.576,0,0,0-.724-1.845,2.412,2.412,0,0,0-1.81-.759,2.6,2.6,0,1,0,2.534,2.6Z" fill="#fff"/>
      <path id="Path_4459" data-name="Path 4459" d="M133.456,68.79l-.406,4.1h-.662l.662-6.364,2.427,4.908,2.445-4.908.654,6.364h-.662l-.4-4.1L135.477,73Z" fill="#fff"/>
      <path id="Path_4460" data-name="Path 4460" d="M144.579,72.894V66.556h.636v6.338Z" fill="#fff"/>
      <path id="Path_4461" data-name="Path 4461" d="M151.218,69.734a3.2,3.2,0,0,1,3.151-3.257,3.238,3.238,0,0,1,1.677.494l-.379.53a2.431,2.431,0,0,0-1.3-.38,2.35,2.35,0,0,0-1.774.759,2.6,2.6,0,0,0-.724,1.854,2.533,2.533,0,0,0,2.5,2.613,2.286,2.286,0,0,0,1.28-.371l.406.512a2.941,2.941,0,0,1-1.686.5A3.2,3.2,0,0,1,151.218,69.734Z" fill="#fff"/>
      <path id="Path_4462" data-name="Path 4462" d="M166.437,72.894l-.768-1.915h-2.392l-.821,1.915h-.688l2.763-6.488,2.6,6.488Zm-1.924-4.819-.962,2.259h1.862Z" fill="#fff"/>
      <path id="Path_4463" data-name="Path 4463" d="M173.129,72.894V66.556h.636v5.7h2.9v.636Z" fill="#fff"/>
      <path id="Path_4464" data-name="Path 4464" d="M191.218,68.79l-.406,4.1h-.662l.662-6.364,2.427,4.908,2.445-4.908.653,6.364h-.662l-.4-4.1L193.239,73Z" fill="#fff"/>
      <path id="Path_4465" data-name="Path 4465" d="M207.011,72.894l-.768-1.915h-2.392l-.821,1.915h-.689l2.763-6.488,2.6,6.488Zm-1.924-4.819-.963,2.259h1.863Z" fill="#fff"/>
      <path id="Path_4466" data-name="Path 4466" d="M217.463,72.894l-1.739-2.348h-1.386v2.348H213.7V66.565c1.827,0,2.092.009,2.56.009a1.88,1.88,0,0,1,1.209.583,2.235,2.235,0,0,1,.5,1.518,1.7,1.7,0,0,1-1.492,1.827l1.775,2.392Zm-1.227-3.054a1.319,1.319,0,0,0,.865-.4,1.154,1.154,0,0,0,.239-.777c-.018-1.006-.539-1.412-1.333-1.412h-1.669v2.6h1.669Z" fill="#fff"/>
      <path id="Path_4467" data-name="Path 4467" d="M224.261,72.9V66.565h.636v2.86h.264l2.384-2.869h.812L225.7,69.778l2.542,3.116H227.4l-2.3-2.833h-.2V72.9Z" fill="#fff"/>
      <path id="Path_4468" data-name="Path 4468" d="M234.281,72.9V66.565h3.434v.644h-2.8v2.163H237.2v.644h-2.286v2.242h2.8V72.9Z" fill="#fff"/>
      <path id="Path_4469" data-name="Path 4469" d="M245.581,72.938V67.245h-1.863V66.6h4.361v.645h-1.863v5.693Z" fill="#fff"/>
      <path id="Path_4470" data-name="Path 4470" d="M254.082,72.894V66.556h.636v6.338Z" fill="#fff"/>
      <path id="Path_4471" data-name="Path 4471" d="M261.524,68.207v4.687h-.653V66.459l4.167,4.758-.009-4.652h.653v6.391Z" fill="#fff"/>
      <path id="Path_4472" data-name="Path 4472" d="M271.685,69.69a3.194,3.194,0,0,1,3.152-3.257,3.135,3.135,0,0,1,2.224.944l-.424.486a2.5,2.5,0,0,0-1.8-.786,2.4,2.4,0,0,0-1.792.759,2.713,2.713,0,0,0,0,3.69,2.442,2.442,0,0,0,3.469.088V70.149l-1.571.018v-.645l2.215-.026v2.392a3.119,3.119,0,0,1-2.321,1.059A3.209,3.209,0,0,1,271.685,69.69Z" fill="#fff"/>
    </g>
    <g id="Group_17" data-name="Group 17">
      <g id="Group_14" data-name="Group 14">
        <path id="Path_4473" data-name="Path 4473" d="M61.7,28.6h7.92L50.859,66.128,31.157,28.6h8.812L51.156,50.237Z" fill="#fff" stroke="#fff" stroke-miterlimit="10" stroke-width="2"/>
      </g>
      <path id="Path_4474" data-name="Path 4474" d="M69.587,28.6V71.729H31.159V28.6H69.587m1.086-1.085h-40.6v45.3h40.6V27.52Z" fill="#fff"/>
      <g id="Group_16" data-name="Group 16">
        <g id="Group_15" data-name="Group 15">
          <path id="Path_4475" data-name="Path 4475" d="M70.308,72.613h-8.9l-10.284-21.1-10.912,21.1H30.422L50.853,33.7Zm-8.352-.869H68.9L50.834,35.606,31.859,71.744h7.829L51.152,49.578Z" fill="#fff"/>
        </g>
      </g>
      <path id="Path_4476" data-name="Path 4476" d="M50.529,67.689h-.154A25.345,25.345,0,0,1,50.523,17h.156A25.374,25.374,0,0,1,75.871,42.5h0A25.375,25.375,0,0,1,50.529,67.689Zm-.006-49.6A24.259,24.259,0,0,0,50.381,66.6h.148a24.259,24.259,0,0,0,.143-48.518Z" fill="#fff"/>
    </g>
  </g>
</svg>
