<svg id="Group_4666" data-name="Group 4666" xmlns="http://www.w3.org/2000/svg" width="768.875" height="135.03" viewBox="0 0 768.875 135.03">
  <text id="METODOLOGÍA" transform="translate(374 107.03)" fill="#2d2d2d" font-size="96" font-family="Sifonn-Pro, Sifonn Pro"><tspan x="-373.536" y="0">METODOLOGÍA</tspan></text>
  <g id="Group_43" data-name="Group 43" transform="translate(37.866 0)">
    <g id="Group_42" data-name="Group 42">
      <path id="Path_4577" data-name="Path 4577" d="M108.981-272.882l-10.926-10.47h3.016l7.91,7.58,7.91-7.58h3.016Z" transform="translate(-98.054 398.086)" fill="#2d2d2d"/>
      <path id="Path_4578" data-name="Path 4578" d="M108.981-288.681l-10.926-10.47h3.016l7.91,7.58,7.91-7.58h3.016Z" transform="translate(-98.054 401.137)" fill="#2d2d2d"/>
      <path id="Path_4579" data-name="Path 4579" d="M108.981-304.481l-10.926-10.47h3.016l7.91,7.58,7.91-7.58h3.016Z" transform="translate(-98.054 404.189)" fill="#2d2d2d"/>
      <path id="Path_4580" data-name="Path 4580" d="M108.981-320.28,98.054-330.75h3.016l7.91,7.58,7.91-7.58h3.016Z" transform="translate(-98.054 407.24)" fill="#2d2d2d"/>
      <path id="Path_4581" data-name="Path 4581" d="M108.981-336.08,98.054-346.55h3.016l7.91,7.58,7.91-7.58h3.016Z" transform="translate(-98.054 410.291)" fill="#2d2d2d"/>
      <path id="Path_4582" data-name="Path 4582" d="M108.981-351.88l-10.926-10.47h3.016l7.91,7.58,7.91-7.58h3.016Z" transform="translate(-98.054 413.342)" fill="#2d2d2d"/>
      <path id="Path_4583" data-name="Path 4583" d="M108.981-367.679l-10.926-10.47h3.016l7.91,7.58,7.91-7.58h3.016Z" transform="translate(-98.054 416.394)" fill="#2d2d2d"/>
      <path id="Path_4584" data-name="Path 4584" d="M108.981-383.479l-10.926-10.47h3.016l7.91,7.58,7.91-7.58h3.016Z" transform="translate(-98.054 419.445)" fill="#2d2d2d"/>
      <path id="Path_4585" data-name="Path 4585" d="M108.981-399.278l-10.926-10.47h3.016l7.91,7.58,7.91-7.58h3.016Z" transform="translate(-98.054 422.496)" fill="#2d2d2d"/>
      <path id="Path_4586" data-name="Path 4586" d="M108.981-415.078l-10.926-10.47h3.016l7.91,7.58,7.91-7.58h3.016Z" transform="translate(-98.054 425.547)" fill="#2d2d2d"/>
    </g>
  </g>
  <g id="Group_45" data-name="Group 45" transform="translate(649.161 38.29)">
    <g id="Group_44" data-name="Group 44">
      <path id="Path_4587" data-name="Path 4587" d="M918.481-368.936l-8.935-8.069-8.937,8.069-8.936-8.069-8.938,8.069-8.936-8.069-8.935,8.069-9.205-8.313.541-.6,8.665,7.825,8.935-8.069,8.936,8.069,8.938-8.069,8.936,8.069,8.937-8.069,8.935,8.069,8.935-8.069,9.208,8.313-.541.6-8.667-7.825Z" transform="translate(-855.658 378.093)" fill="#2d2d2d"/>
    </g>
  </g>
  <g id="Group_50" data-name="Group 50" transform="translate(667.995 47.241)">
    <g id="Group_49" data-name="Group 49">
      <g id="Group_46" data-name="Group 46" transform="translate(0 9.683)">
        <rect id="Rectangle_21" data-name="Rectangle 21" width="101" height="1" transform="translate(-0.12 0.243)" fill="#2d2d2d"/>
      </g>
      <g id="Group_47" data-name="Group 47" transform="translate(30.661)">
        <rect id="Rectangle_22" data-name="Rectangle 22" width="20" height="1" transform="translate(0.219 -0.074)" fill="#2d2d2d"/>
      </g>
      <g id="Group_48" data-name="Group 48" transform="translate(30.661 20.172)">
        <rect id="Rectangle_23" data-name="Rectangle 23" width="41" height="1" transform="translate(0.219 -0.246)" fill="#2d2d2d"/>
      </g>
    </g>
  </g>
  <text id="EL_CUADRANTE_DE_TU_MARCA_ES_NUESTRA:" data-name="EL CUADRANTE DE TU MARCA ES NUESTRA:" transform="translate(358.506 24.229)" fill="#353535" font-size="19" font-family="CenturyGothic, Century Gothic"><tspan x="-193.331" y="0">EL CUADRANTE DE TU MARCA ES NUESTRA:</tspan></text>
</svg>
