<svg xmlns="http://www.w3.org/2000/svg" width="547.513" height="152.262" viewBox="0 0 547.513 152.262">
  <g id="Group_7229" data-name="Group 7229" transform="translate(0.5 0.5)">
    <g id="Group_34" data-name="Group 34" transform="translate(423.022 59.675)">
      <path id="Path_4493" data-name="Path 4493" d="M605.052,131.242a1.681,1.681,0,1,1-1.682-1.682A1.681,1.681,0,0,1,605.052,131.242Z" transform="translate(-601.69 -129.56)"/>
      <path id="Path_4494" data-name="Path 4494" d="M629.968,131.242a1.681,1.681,0,1,1-1.681-1.682A1.681,1.681,0,0,1,629.968,131.242Z" transform="translate(-606.502 -129.56)"/>
      <path id="Path_4495" data-name="Path 4495" d="M654.885,131.242a1.681,1.681,0,1,1-1.681-1.682A1.681,1.681,0,0,1,654.885,131.242Z" transform="translate(-611.314 -129.56)"/>
      <path id="Path_4496" data-name="Path 4496" d="M679.8,131.242a1.681,1.681,0,1,1-1.682-1.682A1.681,1.681,0,0,1,679.8,131.242Z" transform="translate(-616.126 -129.56)"/>
      <path id="Path_4497" data-name="Path 4497" d="M704.719,131.242a1.681,1.681,0,1,1-1.681-1.682A1.681,1.681,0,0,1,704.719,131.242Z" transform="translate(-620.938 -129.56)"/>
      <path id="Path_4498" data-name="Path 4498" d="M729.635,131.242a1.681,1.681,0,1,1-1.681-1.682A1.681,1.681,0,0,1,729.635,131.242Z" transform="translate(-625.75 -129.56)"/>
      <path id="Path_4499" data-name="Path 4499" d="M754.552,131.242a1.681,1.681,0,1,1-1.682-1.682A1.681,1.681,0,0,1,754.552,131.242Z" transform="translate(-630.562 -129.56)"/>
      <path id="Path_4500" data-name="Path 4500" d="M605.052,149.242a1.681,1.681,0,1,1-1.682-1.682A1.681,1.681,0,0,1,605.052,149.242Z" transform="translate(-601.69 -133.036)"/>
      <path id="Path_4501" data-name="Path 4501" d="M629.968,149.242a1.681,1.681,0,1,1-1.681-1.682A1.681,1.681,0,0,1,629.968,149.242Z" transform="translate(-606.502 -133.036)"/>
      <path id="Path_4502" data-name="Path 4502" d="M654.885,149.242a1.681,1.681,0,1,1-1.681-1.682A1.681,1.681,0,0,1,654.885,149.242Z" transform="translate(-611.314 -133.036)"/>
      <path id="Path_4503" data-name="Path 4503" d="M679.8,149.242a1.681,1.681,0,1,1-1.682-1.682A1.681,1.681,0,0,1,679.8,149.242Z" transform="translate(-616.126 -133.036)"/>
      <path id="Path_4504" data-name="Path 4504" d="M704.719,149.242a1.681,1.681,0,1,1-1.681-1.682A1.681,1.681,0,0,1,704.719,149.242Z" transform="translate(-620.938 -133.036)"/>
      <path id="Path_4505" data-name="Path 4505" d="M729.635,149.242a1.681,1.681,0,1,1-1.681-1.682A1.681,1.681,0,0,1,729.635,149.242Z" transform="translate(-625.75 -133.036)"/>
      <path id="Path_4506" data-name="Path 4506" d="M754.552,149.242a1.681,1.681,0,1,1-1.682-1.682A1.681,1.681,0,0,1,754.552,149.242Z" transform="translate(-630.562 -133.036)"/>
      <path id="Path_4507" data-name="Path 4507" d="M605.052,167.242a1.681,1.681,0,1,1-1.682-1.682A1.681,1.681,0,0,1,605.052,167.242Z" transform="translate(-601.69 -136.512)"/>
      <path id="Path_4508" data-name="Path 4508" d="M629.968,167.242a1.681,1.681,0,1,1-1.681-1.682A1.681,1.681,0,0,1,629.968,167.242Z" transform="translate(-606.502 -136.512)"/>
      <path id="Path_4509" data-name="Path 4509" d="M654.885,167.242a1.681,1.681,0,1,1-1.681-1.682A1.681,1.681,0,0,1,654.885,167.242Z" transform="translate(-611.314 -136.512)"/>
      <path id="Path_4510" data-name="Path 4510" d="M679.8,167.242a1.681,1.681,0,1,1-1.682-1.682A1.681,1.681,0,0,1,679.8,167.242Z" transform="translate(-616.126 -136.512)"/>
      <path id="Path_4511" data-name="Path 4511" d="M704.719,167.242a1.681,1.681,0,1,1-1.681-1.682A1.681,1.681,0,0,1,704.719,167.242Z" transform="translate(-620.938 -136.512)"/>
      <path id="Path_4512" data-name="Path 4512" d="M729.635,167.242a1.681,1.681,0,1,1-1.681-1.682A1.681,1.681,0,0,1,729.635,167.242Z" transform="translate(-625.75 -136.512)"/>
      <path id="Path_4513" data-name="Path 4513" d="M754.552,167.242a1.681,1.681,0,1,1-1.682-1.682A1.681,1.681,0,0,1,754.552,167.242Z" transform="translate(-630.562 -136.512)"/>
    </g>
    <g id="Group_35" data-name="Group 35" transform="translate(418.646 0)">
      <path id="Path_4514" data-name="Path 4514" d="M596.267,104.939a35.822,35.822,0,0,1,0,71.644" transform="translate(-596.267 -65.13)" fill="none" stroke="#000" stroke-miterlimit="10" stroke-width="1"/>
      <path id="Path_4515" data-name="Path 4515" d="M596.267,100.828a39.14,39.14,0,1,1,0,78.279" transform="translate(-596.267 -64.336)" fill="none" stroke="#000" stroke-miterlimit="10" stroke-width="1"/>
      <path id="Path_4516" data-name="Path 4516" d="M596.267,96.716a42.457,42.457,0,0,1,0,84.914" transform="translate(-596.267 -63.542)" fill="none" stroke="#000" stroke-miterlimit="10" stroke-width="1"/>
      <path id="Path_4517" data-name="Path 4517" d="M596.267,92.6a45.774,45.774,0,1,1,0,91.549" transform="translate(-596.267 -62.748)" fill="none" stroke="#000" stroke-miterlimit="10" stroke-width="1"/>
      <path id="Path_4518" data-name="Path 4518" d="M596.267,88.493a49.092,49.092,0,0,1,0,98.184" transform="translate(-596.267 -61.954)" fill="none" stroke="#000" stroke-miterlimit="10" stroke-width="1"/>
      <path id="Path_4519" data-name="Path 4519" d="M596.267,84.382a52.409,52.409,0,0,1,0,104.818" transform="translate(-596.267 -61.16)" fill="none" stroke="#000" stroke-miterlimit="10" stroke-width="1"/>
      <path id="Path_4520" data-name="Path 4520" d="M596.267,80.271a55.727,55.727,0,1,1,0,111.453" transform="translate(-596.267 -60.366)" fill="none" stroke="#000" stroke-miterlimit="10" stroke-width="1"/>
      <path id="Path_4521" data-name="Path 4521" d="M596.267,76.159a59.044,59.044,0,0,1,0,118.088" transform="translate(-596.267 -59.572)" fill="none" stroke="#000" stroke-miterlimit="10" stroke-width="1"/>
      <path id="Path_4522" data-name="Path 4522" d="M596.267,72.048a62.361,62.361,0,1,1,0,124.723" transform="translate(-596.267 -58.778)" fill="none" stroke="#000" stroke-miterlimit="10" stroke-width="1"/>
      <path id="Path_4523" data-name="Path 4523" d="M596.267,67.937a65.679,65.679,0,1,1,0,131.357" transform="translate(-596.267 -57.984)" fill="none" stroke="#000" stroke-miterlimit="10" stroke-width="1"/>
      <path id="Path_4524" data-name="Path 4524" d="M596.267,63.724a69.078,69.078,0,1,1,0,138.155" transform="translate(-596.267 -57.171)" fill="none" stroke="#000" stroke-miterlimit="10" stroke-width="1"/>
      <path id="Path_4525" data-name="Path 4525" d="M596.267,59.714a72.314,72.314,0,1,1,0,144.627" transform="translate(-596.267 -56.396)" fill="none" stroke="#000" stroke-miterlimit="10" stroke-width="1"/>
      <path id="Path_4526" data-name="Path 4526" d="M596.267,55.6a75.631,75.631,0,0,1,0,151.262" transform="translate(-596.267 -55.602)" fill="none" stroke="#000" stroke-miterlimit="10" stroke-width="1"/>
    </g>
    <text id="EQUIPO" transform="translate(265.187 111.751)" fill="#2d2d2d" font-size="96" font-family="Sifonn-Pro, Sifonn Pro"><tspan x="-192.24" y="0">EQUIPO</tspan></text>
    <text id="NUESTRA_ANATOMÍA_SE_CONSTRUYE_EN" data-name="NUESTRA ANATOMÍA SE CONSTRUYE EN" transform="translate(236.124 27.371)" fill="#515151" font-size="16" font-family="CenturyGothic, Century Gothic"><tspan x="-150.023" y="0">NUESTRA ANATOMÍA SE CONSTRUYE EN</tspan></text>
    <g id="Group_39" data-name="Group 39" transform="translate(0 59.047)">
      <g id="Group_36" data-name="Group 36">
        <path id="Path_4527" data-name="Path 4527" d="M93.2,128.892,77.421,144.667V178.65h33.921L126.99,163v-34.11Z" transform="translate(-77.421 -128.803)" fill="none" stroke="#000" stroke-miterlimit="10" stroke-width="1"/>
        <path id="Path_4528" data-name="Path 4528" d="M77.421,144.646h33.615L126.9,128.782" transform="translate(-77.421 -128.782)" fill="none" stroke="#000" stroke-miterlimit="10" stroke-width="1"/>
        <path id="Path_4529" data-name="Path 4529" d="M77.421,186.661l16.288-16.288h33.1" transform="translate(-77.421 -136.814)" fill="none" stroke="#000" stroke-miterlimit="10" stroke-width="1"/>
        <line id="Line_1" data-name="Line 1" y2="34.04" transform="translate(33.668 15.689)" fill="none" stroke="#000" stroke-miterlimit="10" stroke-width="1"/>
        <line id="Line_2" data-name="Line 2" y2="33.47" transform="translate(16.146 0.142)" fill="none" stroke="#000" stroke-miterlimit="10" stroke-width="1"/>
      </g>
      <g id="Group_37" data-name="Group 37" transform="translate(39.392)">
        <path id="Path_4530" data-name="Path 4530" d="M142.016,128.892l-15.775,15.775V178.65h33.921L175.81,163v-34.11Z" transform="translate(-126.242 -128.803)" fill="none" stroke="#fff" stroke-miterlimit="10" stroke-width="1"/>
        <path id="Path_4531" data-name="Path 4531" d="M126.242,144.646h33.615l15.864-15.864" transform="translate(-126.242 -128.782)" fill="none" stroke="#fff" stroke-miterlimit="10" stroke-width="1"/>
        <path id="Path_4532" data-name="Path 4532" d="M126.242,186.661l16.288-16.288h33.1" transform="translate(-126.242 -136.814)" fill="none" stroke="#fff" stroke-miterlimit="10" stroke-width="1"/>
        <line id="Line_3" data-name="Line 3" y2="34.04" transform="translate(33.668 15.689)" fill="none" stroke="#fff" stroke-miterlimit="10" stroke-width="1"/>
        <line id="Line_4" data-name="Line 4" y2="33.47" transform="translate(16.146 0.142)" fill="none" stroke="#fff" stroke-miterlimit="10" stroke-width="1"/>
      </g>
      <g id="Group_38" data-name="Group 38" transform="translate(59.609 20.938)" style="mix-blend-mode: multiply;isolation: isolate">
        <circle id="Ellipse_459" data-name="Ellipse 459" cx="4.138" cy="4.138" r="4.138"/>
      </g>
    </g>
  </g>
</svg>
